<svg width="155" height="80" viewBox="0 0 155 80" fill="none" xmlns="http://www.w3.org/2000/svg">
<rect width="155" height="80" rx="40" fill="#131313"/>
<rect x="10" y="10" width="60" height="60" rx="30" fill="#F1F1F1"/>
<path fill-rule="evenodd" clip-rule="evenodd" d="M48.8234 32.1518C48.8234 37.0468 44.8986 40.9719 40.0001 40.9719C35.1032 40.9719 31.1768 37.0468 31.1768 32.1518C31.1768 27.2567 35.1032 23.3334 40.0001 23.3334C44.8986 23.3334 48.8234 27.2567 48.8234 32.1518ZM40.0001 56.6667C32.7707 56.6667 26.6667 55.4917 26.6667 50.9583C26.6667 46.4233 32.8091 45.2899 40.0001 45.2899C47.2311 45.2899 53.3334 46.4649 53.3334 50.9983C53.3334 55.5334 47.1911 56.6667 40.0001 56.6667Z" fill="#131313"/>
<path d="M86.672 45.304C85.616 45.304 84.7093 45.1227 83.952 44.76C83.1947 44.3867 82.576 43.9013 82.096 43.304C81.616 42.696 81.2587 42.0453 81.024 41.352C80.8 40.648 80.688 39.9653 80.688 39.304V38.952C80.688 38.2267 80.8053 37.512 81.04 36.808C81.2747 36.0933 81.632 35.448 82.112 34.872C82.6027 34.296 83.216 33.8373 83.952 33.496C84.6987 33.144 85.5787 32.968 86.592 32.968C87.648 32.968 88.5813 33.1653 89.392 33.56C90.2027 33.9547 90.848 34.504 91.328 35.208C91.8187 35.9013 92.1067 36.7173 92.192 37.656H89.552C89.4773 37.1867 89.3067 36.7867 89.04 36.456C88.7733 36.1253 88.4267 35.8693 88 35.688C87.584 35.5067 87.1147 35.416 86.592 35.416C86.0693 35.416 85.6053 35.5067 85.2 35.688C84.7947 35.8693 84.4533 36.1253 84.176 36.456C83.9093 36.7867 83.7013 37.1813 83.552 37.64C83.4133 38.088 83.344 38.5893 83.344 39.144C83.344 39.688 83.4133 40.1893 83.552 40.648C83.7013 41.096 83.9147 41.4907 84.192 41.832C84.48 42.1627 84.832 42.4187 85.248 42.6C85.664 42.7707 86.1387 42.856 86.672 42.856C87.4827 42.856 88.1653 42.6587 88.72 42.264C89.2853 41.8693 89.6267 41.3253 89.744 40.632H92.368C92.272 41.4853 91.984 42.2693 91.504 42.984C91.0347 43.688 90.3893 44.2533 89.568 44.68C88.7573 45.096 87.792 45.304 86.672 45.304ZM98.2369 45.304C97.4689 45.304 96.7862 45.1867 96.1889 44.952C95.5915 44.7067 95.0849 44.376 94.6689 43.96C94.2635 43.544 93.9542 43.0693 93.7409 42.536C93.5275 41.992 93.4209 41.4213 93.4209 40.824V40.456C93.4209 39.848 93.5275 39.272 93.7409 38.728C93.9649 38.1733 94.2849 37.688 94.7009 37.272C95.1275 36.856 95.6395 36.5307 96.2369 36.296C96.8342 36.0507 97.5009 35.928 98.2369 35.928C98.9942 35.928 99.6662 36.0507 100.253 36.296C100.85 36.5307 101.357 36.856 101.773 37.272C102.189 37.688 102.509 38.1733 102.733 38.728C102.957 39.272 103.069 39.848 103.069 40.456V40.824C103.069 41.4213 102.962 41.992 102.749 42.536C102.536 43.0693 102.221 43.544 101.805 43.96C101.4 44.376 100.898 44.7067 100.301 44.952C99.7035 45.1867 99.0155 45.304 98.2369 45.304ZM98.2369 43.144C98.7382 43.144 99.1542 43.0373 99.4849 42.824C99.8155 42.6107 100.066 42.312 100.237 41.928C100.418 41.544 100.509 41.1173 100.509 40.648C100.509 40.1467 100.418 39.7093 100.237 39.336C100.056 38.952 99.7942 38.648 99.4529 38.424C99.1222 38.2 98.7169 38.088 98.2369 38.088C97.7675 38.088 97.3622 38.2 97.0209 38.424C96.6795 38.648 96.4182 38.952 96.2369 39.336C96.0662 39.7093 95.9809 40.1467 95.9809 40.648C95.9809 41.1173 96.0662 41.544 96.2369 41.928C96.4075 42.312 96.6635 42.6107 97.0049 42.824C97.3462 43.0373 97.7569 43.144 98.2369 43.144ZM104.856 45V36.232H106.888V39.992H106.744C106.744 39.096 106.856 38.3493 107.08 37.752C107.314 37.1547 107.666 36.7067 108.136 36.408C108.605 36.1093 109.176 35.96 109.848 35.96H109.96C110.984 35.96 111.762 36.296 112.296 36.968C112.84 37.6293 113.112 38.6373 113.112 39.992V45H110.552V39.848C110.552 39.3787 110.413 38.9947 110.136 38.696C109.858 38.3973 109.485 38.248 109.016 38.248C108.536 38.248 108.146 38.4027 107.848 38.712C107.56 39.0107 107.416 39.4053 107.416 39.896V45H104.856ZM119.277 45.112C118.392 45.112 117.677 45.0053 117.133 44.792C116.589 44.568 116.189 44.2 115.933 43.688C115.688 43.1653 115.565 42.4613 115.565 41.576V33.864H117.949V41.672C117.949 42.088 118.056 42.408 118.269 42.632C118.493 42.8453 118.808 42.952 119.213 42.952H120.509V45.112H119.277ZM114.237 38.104V36.232H120.509V38.104H114.237ZM127.495 45V42.408H127.063V39.592C127.063 39.144 126.957 38.808 126.743 38.584C126.53 38.36 126.189 38.248 125.719 38.248C125.485 38.248 125.175 38.2533 124.791 38.264C124.407 38.2747 124.013 38.2907 123.607 38.312C123.202 38.3333 122.834 38.3547 122.503 38.376V36.216C122.749 36.1947 123.037 36.1733 123.367 36.152C123.698 36.1307 124.039 36.1147 124.391 36.104C124.743 36.0933 125.074 36.088 125.383 36.088C126.279 36.088 127.031 36.216 127.639 36.472C128.258 36.728 128.727 37.1173 129.047 37.64C129.367 38.152 129.527 38.8133 129.527 39.624V45H127.495ZM124.695 45.224C124.066 45.224 123.511 45.112 123.031 44.888C122.562 44.664 122.194 44.344 121.927 43.928C121.661 43.5013 121.527 42.9947 121.527 42.408C121.527 41.768 121.693 41.2453 122.023 40.84C122.354 40.424 122.818 40.12 123.415 39.928C124.013 39.7253 124.701 39.624 125.479 39.624H127.351V41.048H125.463C125.015 41.048 124.669 41.16 124.423 41.384C124.189 41.5973 124.071 41.8907 124.071 42.264C124.071 42.616 124.189 42.904 124.423 43.128C124.669 43.3413 125.015 43.448 125.463 43.448C125.751 43.448 126.007 43.4 126.231 43.304C126.466 43.1973 126.658 43.0213 126.807 42.776C126.957 42.5307 127.042 42.1893 127.063 41.752L127.671 42.392C127.618 43 127.469 43.512 127.223 43.928C126.989 44.344 126.658 44.664 126.231 44.888C125.815 45.112 125.303 45.224 124.695 45.224Z" fill="white"/>
</svg>
